<mxfile host="65bd71144e" modified="2020-10-28T00:18:24.463Z" agent="5.0 (Macintosh; Intel Mac OS X 10_15_6) AppleWebKit/537.36 (KHTML, like Gecko) Code/1.50.1 Chrome/83.0.4103.122 Electron/9.2.1 Safari/537.36" version="13.6.5" etag="25m-lA3NUhlzWcdHjfZQ">
    <diagram id="yjnJz2J6WTlOAFQIWYxa" name="Page-1">
        <mxGraphModel dx="965" dy="815" grid="1" gridSize="10" guides="1" tooltips="1" connect="1" arrows="1" fold="1" page="1" pageScale="1" pageWidth="827" pageHeight="1169" math="0" shadow="0">
            <root>
                <mxCell id="0"/>
                <mxCell id="1" parent="0"/>
                <mxCell id="8" value="Unit" style="shape=trapezoid;perimeter=trapezoidPerimeter;whiteSpace=wrap;html=1;fixedSize=1;fillColor=#60a917;strokeColor=#2D7600;fontSize=16;fontColor=#000000;" vertex="1" parent="1">
                    <mxGeometry x="30" y="230" width="570" height="180" as="geometry"/>
                </mxCell>
                <mxCell id="9" value="Integration" style="shape=trapezoid;perimeter=trapezoidPerimeter;whiteSpace=wrap;html=1;fixedSize=1;fillColor=#f0a30a;strokeColor=#BD7000;fontSize=16;fontColor=#000000;" vertex="1" parent="1">
                    <mxGeometry x="132.5" y="120" width="365" height="110" as="geometry"/>
                </mxCell>
                <mxCell id="10" value="Functional" style="shape=trapezoid;perimeter=trapezoidPerimeter;whiteSpace=wrap;html=1;fixedSize=1;fillColor=#d80073;strokeColor=#A50040;fontSize=16;fontColor=#000000;" vertex="1" parent="1">
                    <mxGeometry x="230" y="40" width="170" height="80" as="geometry"/>
                </mxCell>
            </root>
        </mxGraphModel>
    </diagram>
</mxfile>